<?xml version="1.0" encoding="utf-8" standalone="no"?>
<!DOCTYPE svg PUBLIC "-//W3C//DTD SVG 1.1//EN"
  "http://www.w3.org/Graphics/SVG/1.1/DTD/svg11.dtd">
<!-- Created with matplotlib (https://matplotlib.org/) -->
<svg height="346.00225pt" version="1.1" viewBox="0 0 660.339 346.00225" width="660.339pt" xmlns="http://www.w3.org/2000/svg" xmlns:xlink="http://www.w3.org/1999/xlink">
 <defs>
  <style type="text/css">
*{stroke-linecap:butt;stroke-linejoin:round;}
  </style>
 </defs>
 <g id="figure_1">
  <g id="patch_1">
   <path d="M 0 346.00225 
L 660.339 346.00225 
L 660.339 0 
L 0 0 
z
" style="fill:#ffffff;"/>
  </g>
  <g id="axes_1">
   <g id="patch_2">
    <path d="M 151.6095 296.79725 
L 508.7295 296.79725 
L 508.7295 30.68525 
L 151.6095 30.68525 
z
" style="fill:#ffffff;"/>
   </g>
   <g id="matplotlib.axis_1">
    <g id="xtick_1">
     <g id="line2d_1">
      <defs>
       <path d="M 0 0 
L 0 3.5 
" id="me5a001a632" style="stroke:#000000;stroke-width:0.8;"/>
      </defs>
      <g>
       <use style="stroke:#000000;stroke-width:0.8;" x="160.5375" xlink:href="#me5a001a632" y="296.79725"/>
      </g>
     </g>
    </g>
    <g id="xtick_2">
     <g id="line2d_2">
      <g>
       <use style="stroke:#000000;stroke-width:0.8;" x="178.3935" xlink:href="#me5a001a632" y="296.79725"/>
      </g>
     </g>
    </g>
    <g id="xtick_3">
     <g id="line2d_3">
      <g>
       <use style="stroke:#000000;stroke-width:0.8;" x="196.2495" xlink:href="#me5a001a632" y="296.79725"/>
      </g>
     </g>
     <g id="text_1">
      <!-- 1.5 -->
      <defs>
       <path d="M 12.40625 8.296875 
L 28.515625 8.296875 
L 28.515625 63.921875 
L 10.984375 60.40625 
L 10.984375 69.390625 
L 28.421875 72.90625 
L 38.28125 72.90625 
L 38.28125 8.296875 
L 54.390625 8.296875 
L 54.390625 0 
L 12.40625 0 
z
" id="DejaVuSans-49"/>
       <path d="M 10.6875 12.40625 
L 21 12.40625 
L 21 0 
L 10.6875 0 
z
" id="DejaVuSans-46"/>
       <path d="M 10.796875 72.90625 
L 49.515625 72.90625 
L 49.515625 64.59375 
L 19.828125 64.59375 
L 19.828125 46.734375 
Q 21.96875 47.46875 24.109375 47.828125 
Q 26.265625 48.1875 28.421875 48.1875 
Q 40.625 48.1875 47.75 41.5 
Q 54.890625 34.8125 54.890625 23.390625 
Q 54.890625 11.625 47.5625 5.09375 
Q 40.234375 -1.421875 26.90625 -1.421875 
Q 22.3125 -1.421875 17.546875 -0.640625 
Q 12.796875 0.140625 7.71875 1.703125 
L 7.71875 11.625 
Q 12.109375 9.234375 16.796875 8.0625 
Q 21.484375 6.890625 26.703125 6.890625 
Q 35.15625 6.890625 40.078125 11.328125 
Q 45.015625 15.765625 45.015625 23.390625 
Q 45.015625 31 40.078125 35.4375 
Q 35.15625 39.890625 26.703125 39.890625 
Q 22.75 39.890625 18.8125 39.015625 
Q 14.890625 38.140625 10.796875 36.28125 
z
" id="DejaVuSans-53"/>
      </defs>
      <g transform="translate(183.527 315.95475)scale(0.16 -0.16)">
       <use xlink:href="#DejaVuSans-49"/>
       <use x="63.623047" xlink:href="#DejaVuSans-46"/>
       <use x="95.410156" xlink:href="#DejaVuSans-53"/>
      </g>
     </g>
    </g>
    <g id="xtick_4">
     <g id="line2d_4">
      <g>
       <use style="stroke:#000000;stroke-width:0.8;" x="214.1055" xlink:href="#me5a001a632" y="296.79725"/>
      </g>
     </g>
    </g>
    <g id="xtick_5">
     <g id="line2d_5">
      <g>
       <use style="stroke:#000000;stroke-width:0.8;" x="231.9615" xlink:href="#me5a001a632" y="296.79725"/>
      </g>
     </g>
    </g>
    <g id="xtick_6">
     <g id="line2d_6">
      <g>
       <use style="stroke:#000000;stroke-width:0.8;" x="249.8175" xlink:href="#me5a001a632" y="296.79725"/>
      </g>
     </g>
     <g id="text_2">
      <!-- 3 -->
      <defs>
       <path d="M 40.578125 39.3125 
Q 47.65625 37.796875 51.625 33 
Q 55.609375 28.21875 55.609375 21.1875 
Q 55.609375 10.40625 48.1875 4.484375 
Q 40.765625 -1.421875 27.09375 -1.421875 
Q 22.515625 -1.421875 17.65625 -0.515625 
Q 12.796875 0.390625 7.625 2.203125 
L 7.625 11.71875 
Q 11.71875 9.328125 16.59375 8.109375 
Q 21.484375 6.890625 26.8125 6.890625 
Q 36.078125 6.890625 40.9375 10.546875 
Q 45.796875 14.203125 45.796875 21.1875 
Q 45.796875 27.640625 41.28125 31.265625 
Q 36.765625 34.90625 28.71875 34.90625 
L 20.21875 34.90625 
L 20.21875 43.015625 
L 29.109375 43.015625 
Q 36.375 43.015625 40.234375 45.921875 
Q 44.09375 48.828125 44.09375 54.296875 
Q 44.09375 59.90625 40.109375 62.90625 
Q 36.140625 65.921875 28.71875 65.921875 
Q 24.65625 65.921875 20.015625 65.03125 
Q 15.375 64.15625 9.8125 62.3125 
L 9.8125 71.09375 
Q 15.4375 72.65625 20.34375 73.4375 
Q 25.25 74.21875 29.59375 74.21875 
Q 40.828125 74.21875 47.359375 69.109375 
Q 53.90625 64.015625 53.90625 55.328125 
Q 53.90625 49.265625 50.4375 45.09375 
Q 46.96875 40.921875 40.578125 39.3125 
z
" id="DejaVuSans-51"/>
      </defs>
      <g transform="translate(244.7275 315.95475)scale(0.16 -0.16)">
       <use xlink:href="#DejaVuSans-51"/>
      </g>
     </g>
    </g>
    <g id="xtick_7">
     <g id="line2d_7">
      <g>
       <use style="stroke:#000000;stroke-width:0.8;" x="267.6735" xlink:href="#me5a001a632" y="296.79725"/>
      </g>
     </g>
    </g>
    <g id="xtick_8">
     <g id="line2d_8">
      <g>
       <use style="stroke:#000000;stroke-width:0.8;" x="285.5295" xlink:href="#me5a001a632" y="296.79725"/>
      </g>
     </g>
    </g>
    <g id="xtick_9">
     <g id="line2d_9">
      <g>
       <use style="stroke:#000000;stroke-width:0.8;" x="303.3855" xlink:href="#me5a001a632" y="296.79725"/>
      </g>
     </g>
     <g id="text_3">
      <!-- 4.5 -->
      <defs>
       <path d="M 37.796875 64.3125 
L 12.890625 25.390625 
L 37.796875 25.390625 
z
M 35.203125 72.90625 
L 47.609375 72.90625 
L 47.609375 25.390625 
L 58.015625 25.390625 
L 58.015625 17.1875 
L 47.609375 17.1875 
L 47.609375 0 
L 37.796875 0 
L 37.796875 17.1875 
L 4.890625 17.1875 
L 4.890625 26.703125 
z
" id="DejaVuSans-52"/>
      </defs>
      <g transform="translate(290.663 315.95475)scale(0.16 -0.16)">
       <use xlink:href="#DejaVuSans-52"/>
       <use x="63.623047" xlink:href="#DejaVuSans-46"/>
       <use x="95.410156" xlink:href="#DejaVuSans-53"/>
      </g>
     </g>
    </g>
    <g id="xtick_10">
     <g id="line2d_10">
      <g>
       <use style="stroke:#000000;stroke-width:0.8;" x="321.2415" xlink:href="#me5a001a632" y="296.79725"/>
      </g>
     </g>
    </g>
    <g id="xtick_11">
     <g id="line2d_11">
      <g>
       <use style="stroke:#000000;stroke-width:0.8;" x="339.0975" xlink:href="#me5a001a632" y="296.79725"/>
      </g>
     </g>
    </g>
    <g id="xtick_12">
     <g id="line2d_12">
      <g>
       <use style="stroke:#000000;stroke-width:0.8;" x="356.9535" xlink:href="#me5a001a632" y="296.79725"/>
      </g>
     </g>
     <g id="text_4">
      <!-- 6 -->
      <defs>
       <path d="M 33.015625 40.375 
Q 26.375 40.375 22.484375 35.828125 
Q 18.609375 31.296875 18.609375 23.390625 
Q 18.609375 15.53125 22.484375 10.953125 
Q 26.375 6.390625 33.015625 6.390625 
Q 39.65625 6.390625 43.53125 10.953125 
Q 47.40625 15.53125 47.40625 23.390625 
Q 47.40625 31.296875 43.53125 35.828125 
Q 39.65625 40.375 33.015625 40.375 
z
M 52.59375 71.296875 
L 52.59375 62.3125 
Q 48.875 64.0625 45.09375 64.984375 
Q 41.3125 65.921875 37.59375 65.921875 
Q 27.828125 65.921875 22.671875 59.328125 
Q 17.53125 52.734375 16.796875 39.40625 
Q 19.671875 43.65625 24.015625 45.921875 
Q 28.375 48.1875 33.59375 48.1875 
Q 44.578125 48.1875 50.953125 41.515625 
Q 57.328125 34.859375 57.328125 23.390625 
Q 57.328125 12.15625 50.6875 5.359375 
Q 44.046875 -1.421875 33.015625 -1.421875 
Q 20.359375 -1.421875 13.671875 8.265625 
Q 6.984375 17.96875 6.984375 36.375 
Q 6.984375 53.65625 15.1875 63.9375 
Q 23.390625 74.21875 37.203125 74.21875 
Q 40.921875 74.21875 44.703125 73.484375 
Q 48.484375 72.75 52.59375 71.296875 
z
" id="DejaVuSans-54"/>
      </defs>
      <g transform="translate(351.8635 315.95475)scale(0.16 -0.16)">
       <use xlink:href="#DejaVuSans-54"/>
      </g>
     </g>
    </g>
    <g id="xtick_13">
     <g id="line2d_13">
      <g>
       <use style="stroke:#000000;stroke-width:0.8;" x="374.8095" xlink:href="#me5a001a632" y="296.79725"/>
      </g>
     </g>
    </g>
    <g id="xtick_14">
     <g id="line2d_14">
      <g>
       <use style="stroke:#000000;stroke-width:0.8;" x="392.6655" xlink:href="#me5a001a632" y="296.79725"/>
      </g>
     </g>
    </g>
    <g id="xtick_15">
     <g id="line2d_15">
      <g>
       <use style="stroke:#000000;stroke-width:0.8;" x="410.5215" xlink:href="#me5a001a632" y="296.79725"/>
      </g>
     </g>
     <g id="text_5">
      <!-- 7.5 -->
      <defs>
       <path d="M 8.203125 72.90625 
L 55.078125 72.90625 
L 55.078125 68.703125 
L 28.609375 0 
L 18.3125 0 
L 43.21875 64.59375 
L 8.203125 64.59375 
z
" id="DejaVuSans-55"/>
      </defs>
      <g transform="translate(397.799 315.95475)scale(0.16 -0.16)">
       <use xlink:href="#DejaVuSans-55"/>
       <use x="63.623047" xlink:href="#DejaVuSans-46"/>
       <use x="95.410156" xlink:href="#DejaVuSans-53"/>
      </g>
     </g>
    </g>
    <g id="xtick_16">
     <g id="line2d_16">
      <g>
       <use style="stroke:#000000;stroke-width:0.8;" x="428.3775" xlink:href="#me5a001a632" y="296.79725"/>
      </g>
     </g>
    </g>
    <g id="xtick_17">
     <g id="line2d_17">
      <g>
       <use style="stroke:#000000;stroke-width:0.8;" x="446.2335" xlink:href="#me5a001a632" y="296.79725"/>
      </g>
     </g>
    </g>
    <g id="xtick_18">
     <g id="line2d_18">
      <g>
       <use style="stroke:#000000;stroke-width:0.8;" x="464.0895" xlink:href="#me5a001a632" y="296.79725"/>
      </g>
     </g>
     <g id="text_6">
      <!-- 9 -->
      <defs>
       <path d="M 10.984375 1.515625 
L 10.984375 10.5 
Q 14.703125 8.734375 18.5 7.8125 
Q 22.3125 6.890625 25.984375 6.890625 
Q 35.75 6.890625 40.890625 13.453125 
Q 46.046875 20.015625 46.78125 33.40625 
Q 43.953125 29.203125 39.59375 26.953125 
Q 35.25 24.703125 29.984375 24.703125 
Q 19.046875 24.703125 12.671875 31.3125 
Q 6.296875 37.9375 6.296875 49.421875 
Q 6.296875 60.640625 12.9375 67.421875 
Q 19.578125 74.21875 30.609375 74.21875 
Q 43.265625 74.21875 49.921875 64.515625 
Q 56.59375 54.828125 56.59375 36.375 
Q 56.59375 19.140625 48.40625 8.859375 
Q 40.234375 -1.421875 26.421875 -1.421875 
Q 22.703125 -1.421875 18.890625 -0.6875 
Q 15.09375 0.046875 10.984375 1.515625 
z
M 30.609375 32.421875 
Q 37.25 32.421875 41.125 36.953125 
Q 45.015625 41.5 45.015625 49.421875 
Q 45.015625 57.28125 41.125 61.84375 
Q 37.25 66.40625 30.609375 66.40625 
Q 23.96875 66.40625 20.09375 61.84375 
Q 16.21875 57.28125 16.21875 49.421875 
Q 16.21875 41.5 20.09375 36.953125 
Q 23.96875 32.421875 30.609375 32.421875 
z
" id="DejaVuSans-57"/>
      </defs>
      <g transform="translate(458.9995 315.95475)scale(0.16 -0.16)">
       <use xlink:href="#DejaVuSans-57"/>
      </g>
     </g>
    </g>
    <g id="xtick_19">
     <g id="line2d_19">
      <g>
       <use style="stroke:#000000;stroke-width:0.8;" x="481.9455" xlink:href="#me5a001a632" y="296.79725"/>
      </g>
     </g>
    </g>
    <g id="text_7">
     <!-- sliding window size $w$ in percent of number of commits -->
     <defs>
      <path d="M 44.28125 53.078125 
L 44.28125 44.578125 
Q 40.484375 46.53125 36.375 47.5 
Q 32.28125 48.484375 27.875 48.484375 
Q 21.1875 48.484375 17.84375 46.4375 
Q 14.5 44.390625 14.5 40.28125 
Q 14.5 37.15625 16.890625 35.375 
Q 19.28125 33.59375 26.515625 31.984375 
L 29.59375 31.296875 
Q 39.15625 29.25 43.1875 25.515625 
Q 47.21875 21.78125 47.21875 15.09375 
Q 47.21875 7.46875 41.1875 3.015625 
Q 35.15625 -1.421875 24.609375 -1.421875 
Q 20.21875 -1.421875 15.453125 -0.5625 
Q 10.6875 0.296875 5.421875 2 
L 5.421875 11.28125 
Q 10.40625 8.6875 15.234375 7.390625 
Q 20.0625 6.109375 24.8125 6.109375 
Q 31.15625 6.109375 34.5625 8.28125 
Q 37.984375 10.453125 37.984375 14.40625 
Q 37.984375 18.0625 35.515625 20.015625 
Q 33.0625 21.96875 24.703125 23.78125 
L 21.578125 24.515625 
Q 13.234375 26.265625 9.515625 29.90625 
Q 5.8125 33.546875 5.8125 39.890625 
Q 5.8125 47.609375 11.28125 51.796875 
Q 16.75 56 26.8125 56 
Q 31.78125 56 36.171875 55.265625 
Q 40.578125 54.546875 44.28125 53.078125 
z
" id="DejaVuSans-115"/>
      <path d="M 9.421875 75.984375 
L 18.40625 75.984375 
L 18.40625 0 
L 9.421875 0 
z
" id="DejaVuSans-108"/>
      <path d="M 9.421875 54.6875 
L 18.40625 54.6875 
L 18.40625 0 
L 9.421875 0 
z
M 9.421875 75.984375 
L 18.40625 75.984375 
L 18.40625 64.59375 
L 9.421875 64.59375 
z
" id="DejaVuSans-105"/>
      <path d="M 45.40625 46.390625 
L 45.40625 75.984375 
L 54.390625 75.984375 
L 54.390625 0 
L 45.40625 0 
L 45.40625 8.203125 
Q 42.578125 3.328125 38.25 0.953125 
Q 33.9375 -1.421875 27.875 -1.421875 
Q 17.96875 -1.421875 11.734375 6.484375 
Q 5.515625 14.40625 5.515625 27.296875 
Q 5.515625 40.1875 11.734375 48.09375 
Q 17.96875 56 27.875 56 
Q 33.9375 56 38.25 53.625 
Q 42.578125 51.265625 45.40625 46.390625 
z
M 14.796875 27.296875 
Q 14.796875 17.390625 18.875 11.75 
Q 22.953125 6.109375 30.078125 6.109375 
Q 37.203125 6.109375 41.296875 11.75 
Q 45.40625 17.390625 45.40625 27.296875 
Q 45.40625 37.203125 41.296875 42.84375 
Q 37.203125 48.484375 30.078125 48.484375 
Q 22.953125 48.484375 18.875 42.84375 
Q 14.796875 37.203125 14.796875 27.296875 
z
" id="DejaVuSans-100"/>
      <path d="M 54.890625 33.015625 
L 54.890625 0 
L 45.90625 0 
L 45.90625 32.71875 
Q 45.90625 40.484375 42.875 44.328125 
Q 39.84375 48.1875 33.796875 48.1875 
Q 26.515625 48.1875 22.3125 43.546875 
Q 18.109375 38.921875 18.109375 30.90625 
L 18.109375 0 
L 9.078125 0 
L 9.078125 54.6875 
L 18.109375 54.6875 
L 18.109375 46.1875 
Q 21.34375 51.125 25.703125 53.5625 
Q 30.078125 56 35.796875 56 
Q 45.21875 56 50.046875 50.171875 
Q 54.890625 44.34375 54.890625 33.015625 
z
" id="DejaVuSans-110"/>
      <path d="M 45.40625 27.984375 
Q 45.40625 37.75 41.375 43.109375 
Q 37.359375 48.484375 30.078125 48.484375 
Q 22.859375 48.484375 18.828125 43.109375 
Q 14.796875 37.75 14.796875 27.984375 
Q 14.796875 18.265625 18.828125 12.890625 
Q 22.859375 7.515625 30.078125 7.515625 
Q 37.359375 7.515625 41.375 12.890625 
Q 45.40625 18.265625 45.40625 27.984375 
z
M 54.390625 6.78125 
Q 54.390625 -7.171875 48.1875 -13.984375 
Q 42 -20.796875 29.203125 -20.796875 
Q 24.46875 -20.796875 20.265625 -20.09375 
Q 16.0625 -19.390625 12.109375 -17.921875 
L 12.109375 -9.1875 
Q 16.0625 -11.328125 19.921875 -12.34375 
Q 23.78125 -13.375 27.78125 -13.375 
Q 36.625 -13.375 41.015625 -8.765625 
Q 45.40625 -4.15625 45.40625 5.171875 
L 45.40625 9.625 
Q 42.625 4.78125 38.28125 2.390625 
Q 33.9375 0 27.875 0 
Q 17.828125 0 11.671875 7.65625 
Q 5.515625 15.328125 5.515625 27.984375 
Q 5.515625 40.671875 11.671875 48.328125 
Q 17.828125 56 27.875 56 
Q 33.9375 56 38.28125 53.609375 
Q 42.625 51.21875 45.40625 46.390625 
L 45.40625 54.6875 
L 54.390625 54.6875 
z
" id="DejaVuSans-103"/>
      <path id="DejaVuSans-32"/>
      <path d="M 4.203125 54.6875 
L 13.1875 54.6875 
L 24.421875 12.015625 
L 35.59375 54.6875 
L 46.1875 54.6875 
L 57.421875 12.015625 
L 68.609375 54.6875 
L 77.59375 54.6875 
L 63.28125 0 
L 52.6875 0 
L 40.921875 44.828125 
L 29.109375 0 
L 18.5 0 
z
" id="DejaVuSans-119"/>
      <path d="M 30.609375 48.390625 
Q 23.390625 48.390625 19.1875 42.75 
Q 14.984375 37.109375 14.984375 27.296875 
Q 14.984375 17.484375 19.15625 11.84375 
Q 23.34375 6.203125 30.609375 6.203125 
Q 37.796875 6.203125 41.984375 11.859375 
Q 46.1875 17.53125 46.1875 27.296875 
Q 46.1875 37.015625 41.984375 42.703125 
Q 37.796875 48.390625 30.609375 48.390625 
z
M 30.609375 56 
Q 42.328125 56 49.015625 48.375 
Q 55.71875 40.765625 55.71875 27.296875 
Q 55.71875 13.875 49.015625 6.21875 
Q 42.328125 -1.421875 30.609375 -1.421875 
Q 18.84375 -1.421875 12.171875 6.21875 
Q 5.515625 13.875 5.515625 27.296875 
Q 5.515625 40.765625 12.171875 48.375 
Q 18.84375 56 30.609375 56 
z
" id="DejaVuSans-111"/>
      <path d="M 5.515625 54.6875 
L 48.1875 54.6875 
L 48.1875 46.484375 
L 14.40625 7.171875 
L 48.1875 7.171875 
L 48.1875 0 
L 4.296875 0 
L 4.296875 8.203125 
L 38.09375 47.515625 
L 5.515625 47.515625 
z
" id="DejaVuSans-122"/>
      <path d="M 56.203125 29.59375 
L 56.203125 25.203125 
L 14.890625 25.203125 
Q 15.484375 15.921875 20.484375 11.0625 
Q 25.484375 6.203125 34.421875 6.203125 
Q 39.59375 6.203125 44.453125 7.46875 
Q 49.3125 8.734375 54.109375 11.28125 
L 54.109375 2.78125 
Q 49.265625 0.734375 44.1875 -0.34375 
Q 39.109375 -1.421875 33.890625 -1.421875 
Q 20.796875 -1.421875 13.15625 6.1875 
Q 5.515625 13.8125 5.515625 26.8125 
Q 5.515625 40.234375 12.765625 48.109375 
Q 20.015625 56 32.328125 56 
Q 43.359375 56 49.78125 48.890625 
Q 56.203125 41.796875 56.203125 29.59375 
z
M 47.21875 32.234375 
Q 47.125 39.59375 43.09375 43.984375 
Q 39.0625 48.390625 32.421875 48.390625 
Q 24.90625 48.390625 20.390625 44.140625 
Q 15.875 39.890625 15.1875 32.171875 
z
" id="DejaVuSans-101"/>
      <path d="M 8.5 54.6875 
L 17.390625 54.6875 
L 19.671875 10.6875 
L 40.09375 54.6875 
L 50.484375 54.6875 
L 53.515625 10.6875 
L 72.90625 54.6875 
L 81.890625 54.6875 
L 56.890625 0 
L 46.390625 0 
L 43.703125 45.3125 
L 22.796875 0 
L 12.203125 0 
z
" id="DejaVuSans-Oblique-119"/>
      <path d="M 18.109375 8.203125 
L 18.109375 -20.796875 
L 9.078125 -20.796875 
L 9.078125 54.6875 
L 18.109375 54.6875 
L 18.109375 46.390625 
Q 20.953125 51.265625 25.265625 53.625 
Q 29.59375 56 35.59375 56 
Q 45.5625 56 51.78125 48.09375 
Q 58.015625 40.1875 58.015625 27.296875 
Q 58.015625 14.40625 51.78125 6.484375 
Q 45.5625 -1.421875 35.59375 -1.421875 
Q 29.59375 -1.421875 25.265625 0.953125 
Q 20.953125 3.328125 18.109375 8.203125 
z
M 48.6875 27.296875 
Q 48.6875 37.203125 44.609375 42.84375 
Q 40.53125 48.484375 33.40625 48.484375 
Q 26.265625 48.484375 22.1875 42.84375 
Q 18.109375 37.203125 18.109375 27.296875 
Q 18.109375 17.390625 22.1875 11.75 
Q 26.265625 6.109375 33.40625 6.109375 
Q 40.53125 6.109375 44.609375 11.75 
Q 48.6875 17.390625 48.6875 27.296875 
z
" id="DejaVuSans-112"/>
      <path d="M 41.109375 46.296875 
Q 39.59375 47.171875 37.8125 47.578125 
Q 36.03125 48 33.890625 48 
Q 26.265625 48 22.1875 43.046875 
Q 18.109375 38.09375 18.109375 28.8125 
L 18.109375 0 
L 9.078125 0 
L 9.078125 54.6875 
L 18.109375 54.6875 
L 18.109375 46.1875 
Q 20.953125 51.171875 25.484375 53.578125 
Q 30.03125 56 36.53125 56 
Q 37.453125 56 38.578125 55.875 
Q 39.703125 55.765625 41.0625 55.515625 
z
" id="DejaVuSans-114"/>
      <path d="M 48.78125 52.59375 
L 48.78125 44.1875 
Q 44.96875 46.296875 41.140625 47.34375 
Q 37.3125 48.390625 33.40625 48.390625 
Q 24.65625 48.390625 19.8125 42.84375 
Q 14.984375 37.3125 14.984375 27.296875 
Q 14.984375 17.28125 19.8125 11.734375 
Q 24.65625 6.203125 33.40625 6.203125 
Q 37.3125 6.203125 41.140625 7.25 
Q 44.96875 8.296875 48.78125 10.40625 
L 48.78125 2.09375 
Q 45.015625 0.34375 40.984375 -0.53125 
Q 36.96875 -1.421875 32.421875 -1.421875 
Q 20.0625 -1.421875 12.78125 6.34375 
Q 5.515625 14.109375 5.515625 27.296875 
Q 5.515625 40.671875 12.859375 48.328125 
Q 20.21875 56 33.015625 56 
Q 37.15625 56 41.109375 55.140625 
Q 45.0625 54.296875 48.78125 52.59375 
z
" id="DejaVuSans-99"/>
      <path d="M 18.3125 70.21875 
L 18.3125 54.6875 
L 36.8125 54.6875 
L 36.8125 47.703125 
L 18.3125 47.703125 
L 18.3125 18.015625 
Q 18.3125 11.328125 20.140625 9.421875 
Q 21.96875 7.515625 27.59375 7.515625 
L 36.8125 7.515625 
L 36.8125 0 
L 27.59375 0 
Q 17.1875 0 13.234375 3.875 
Q 9.28125 7.765625 9.28125 18.015625 
L 9.28125 47.703125 
L 2.6875 47.703125 
L 2.6875 54.6875 
L 9.28125 54.6875 
L 9.28125 70.21875 
z
" id="DejaVuSans-116"/>
      <path d="M 37.109375 75.984375 
L 37.109375 68.5 
L 28.515625 68.5 
Q 23.6875 68.5 21.796875 66.546875 
Q 19.921875 64.59375 19.921875 59.515625 
L 19.921875 54.6875 
L 34.71875 54.6875 
L 34.71875 47.703125 
L 19.921875 47.703125 
L 19.921875 0 
L 10.890625 0 
L 10.890625 47.703125 
L 2.296875 47.703125 
L 2.296875 54.6875 
L 10.890625 54.6875 
L 10.890625 58.5 
Q 10.890625 67.625 15.140625 71.796875 
Q 19.390625 75.984375 28.609375 75.984375 
z
" id="DejaVuSans-102"/>
      <path d="M 8.5 21.578125 
L 8.5 54.6875 
L 17.484375 54.6875 
L 17.484375 21.921875 
Q 17.484375 14.15625 20.5 10.265625 
Q 23.53125 6.390625 29.59375 6.390625 
Q 36.859375 6.390625 41.078125 11.03125 
Q 45.3125 15.671875 45.3125 23.6875 
L 45.3125 54.6875 
L 54.296875 54.6875 
L 54.296875 0 
L 45.3125 0 
L 45.3125 8.40625 
Q 42.046875 3.421875 37.71875 1 
Q 33.40625 -1.421875 27.6875 -1.421875 
Q 18.265625 -1.421875 13.375 4.4375 
Q 8.5 10.296875 8.5 21.578125 
z
M 31.109375 56 
z
" id="DejaVuSans-117"/>
      <path d="M 52 44.1875 
Q 55.375 50.25 60.0625 53.125 
Q 64.75 56 71.09375 56 
Q 79.640625 56 84.28125 50.015625 
Q 88.921875 44.046875 88.921875 33.015625 
L 88.921875 0 
L 79.890625 0 
L 79.890625 32.71875 
Q 79.890625 40.578125 77.09375 44.375 
Q 74.3125 48.1875 68.609375 48.1875 
Q 61.625 48.1875 57.5625 43.546875 
Q 53.515625 38.921875 53.515625 30.90625 
L 53.515625 0 
L 44.484375 0 
L 44.484375 32.71875 
Q 44.484375 40.625 41.703125 44.40625 
Q 38.921875 48.1875 33.109375 48.1875 
Q 26.21875 48.1875 22.15625 43.53125 
Q 18.109375 38.875 18.109375 30.90625 
L 18.109375 0 
L 9.078125 0 
L 9.078125 54.6875 
L 18.109375 54.6875 
L 18.109375 46.1875 
Q 21.1875 51.21875 25.484375 53.609375 
Q 29.78125 56 35.6875 56 
Q 41.65625 56 45.828125 52.96875 
Q 50 49.953125 52 44.1875 
z
" id="DejaVuSans-109"/>
      <path d="M 48.6875 27.296875 
Q 48.6875 37.203125 44.609375 42.84375 
Q 40.53125 48.484375 33.40625 48.484375 
Q 26.265625 48.484375 22.1875 42.84375 
Q 18.109375 37.203125 18.109375 27.296875 
Q 18.109375 17.390625 22.1875 11.75 
Q 26.265625 6.109375 33.40625 6.109375 
Q 40.53125 6.109375 44.609375 11.75 
Q 48.6875 17.390625 48.6875 27.296875 
z
M 18.109375 46.390625 
Q 20.953125 51.265625 25.265625 53.625 
Q 29.59375 56 35.59375 56 
Q 45.5625 56 51.78125 48.09375 
Q 58.015625 40.1875 58.015625 27.296875 
Q 58.015625 14.40625 51.78125 6.484375 
Q 45.5625 -1.421875 35.59375 -1.421875 
Q 29.59375 -1.421875 25.265625 0.953125 
Q 20.953125 3.328125 18.109375 8.203125 
L 18.109375 0 
L 9.078125 0 
L 9.078125 75.984375 
L 18.109375 75.984375 
z
" id="DejaVuSans-98"/>
     </defs>
     <g transform="translate(109.6095 335.44225)scale(0.16 -0.16)">
      <use transform="translate(0 0.015625)" xlink:href="#DejaVuSans-115"/>
      <use transform="translate(52.099609 0.015625)" xlink:href="#DejaVuSans-108"/>
      <use transform="translate(79.882812 0.015625)" xlink:href="#DejaVuSans-105"/>
      <use transform="translate(107.666016 0.015625)" xlink:href="#DejaVuSans-100"/>
      <use transform="translate(171.142578 0.015625)" xlink:href="#DejaVuSans-105"/>
      <use transform="translate(198.925781 0.015625)" xlink:href="#DejaVuSans-110"/>
      <use transform="translate(262.304688 0.015625)" xlink:href="#DejaVuSans-103"/>
      <use transform="translate(325.78125 0.015625)" xlink:href="#DejaVuSans-32"/>
      <use transform="translate(357.568359 0.015625)" xlink:href="#DejaVuSans-119"/>
      <use transform="translate(439.355469 0.015625)" xlink:href="#DejaVuSans-105"/>
      <use transform="translate(467.138672 0.015625)" xlink:href="#DejaVuSans-110"/>
      <use transform="translate(530.517578 0.015625)" xlink:href="#DejaVuSans-100"/>
      <use transform="translate(593.994141 0.015625)" xlink:href="#DejaVuSans-111"/>
      <use transform="translate(655.175781 0.015625)" xlink:href="#DejaVuSans-119"/>
      <use transform="translate(736.962891 0.015625)" xlink:href="#DejaVuSans-32"/>
      <use transform="translate(768.75 0.015625)" xlink:href="#DejaVuSans-115"/>
      <use transform="translate(820.849609 0.015625)" xlink:href="#DejaVuSans-105"/>
      <use transform="translate(848.632812 0.015625)" xlink:href="#DejaVuSans-122"/>
      <use transform="translate(901.123047 0.015625)" xlink:href="#DejaVuSans-101"/>
      <use transform="translate(962.646484 0.015625)" xlink:href="#DejaVuSans-32"/>
      <use transform="translate(994.433594 0.015625)" xlink:href="#DejaVuSans-Oblique-119"/>
      <use transform="translate(1076.220703 0.015625)" xlink:href="#DejaVuSans-32"/>
      <use transform="translate(1108.007812 0.015625)" xlink:href="#DejaVuSans-105"/>
      <use transform="translate(1135.791016 0.015625)" xlink:href="#DejaVuSans-110"/>
      <use transform="translate(1199.169922 0.015625)" xlink:href="#DejaVuSans-32"/>
      <use transform="translate(1230.957031 0.015625)" xlink:href="#DejaVuSans-112"/>
      <use transform="translate(1294.433594 0.015625)" xlink:href="#DejaVuSans-101"/>
      <use transform="translate(1355.957031 0.015625)" xlink:href="#DejaVuSans-114"/>
      <use transform="translate(1397.070312 0.015625)" xlink:href="#DejaVuSans-99"/>
      <use transform="translate(1452.050781 0.015625)" xlink:href="#DejaVuSans-101"/>
      <use transform="translate(1513.574219 0.015625)" xlink:href="#DejaVuSans-110"/>
      <use transform="translate(1576.953125 0.015625)" xlink:href="#DejaVuSans-116"/>
      <use transform="translate(1616.162109 0.015625)" xlink:href="#DejaVuSans-32"/>
      <use transform="translate(1647.949219 0.015625)" xlink:href="#DejaVuSans-111"/>
      <use transform="translate(1709.130859 0.015625)" xlink:href="#DejaVuSans-102"/>
      <use transform="translate(1744.335938 0.015625)" xlink:href="#DejaVuSans-32"/>
      <use transform="translate(1776.123047 0.015625)" xlink:href="#DejaVuSans-110"/>
      <use transform="translate(1839.501953 0.015625)" xlink:href="#DejaVuSans-117"/>
      <use transform="translate(1902.880859 0.015625)" xlink:href="#DejaVuSans-109"/>
      <use transform="translate(2000.292969 0.015625)" xlink:href="#DejaVuSans-98"/>
      <use transform="translate(2063.769531 0.015625)" xlink:href="#DejaVuSans-101"/>
      <use transform="translate(2125.292969 0.015625)" xlink:href="#DejaVuSans-114"/>
      <use transform="translate(2166.40625 0.015625)" xlink:href="#DejaVuSans-32"/>
      <use transform="translate(2198.193359 0.015625)" xlink:href="#DejaVuSans-111"/>
      <use transform="translate(2259.375 0.015625)" xlink:href="#DejaVuSans-102"/>
      <use transform="translate(2294.580078 0.015625)" xlink:href="#DejaVuSans-32"/>
      <use transform="translate(2326.367188 0.015625)" xlink:href="#DejaVuSans-99"/>
      <use transform="translate(2381.347656 0.015625)" xlink:href="#DejaVuSans-111"/>
      <use transform="translate(2442.529297 0.015625)" xlink:href="#DejaVuSans-109"/>
      <use transform="translate(2539.941406 0.015625)" xlink:href="#DejaVuSans-109"/>
      <use transform="translate(2637.353516 0.015625)" xlink:href="#DejaVuSans-105"/>
      <use transform="translate(2665.136719 0.015625)" xlink:href="#DejaVuSans-116"/>
      <use transform="translate(2704.345703 0.015625)" xlink:href="#DejaVuSans-115"/>
     </g>
    </g>
   </g>
   <g id="matplotlib.axis_2">
    <g id="ytick_1">
     <g id="line2d_20">
      <defs>
       <path d="M 0 0 
L -3.5 0 
" id="m5d708e5b19" style="stroke:#000000;stroke-width:0.8;"/>
      </defs>
      <g>
       <use style="stroke:#000000;stroke-width:0.8;" x="151.6095" xlink:href="#m5d708e5b19" y="285.545501"/>
      </g>
     </g>
     <g id="text_8">
      <!-- 0.05 -->
      <defs>
       <path d="M 31.78125 66.40625 
Q 24.171875 66.40625 20.328125 58.90625 
Q 16.5 51.421875 16.5 36.375 
Q 16.5 21.390625 20.328125 13.890625 
Q 24.171875 6.390625 31.78125 6.390625 
Q 39.453125 6.390625 43.28125 13.890625 
Q 47.125 21.390625 47.125 36.375 
Q 47.125 51.421875 43.28125 58.90625 
Q 39.453125 66.40625 31.78125 66.40625 
z
M 31.78125 74.21875 
Q 44.046875 74.21875 50.515625 64.515625 
Q 56.984375 54.828125 56.984375 36.375 
Q 56.984375 17.96875 50.515625 8.265625 
Q 44.046875 -1.421875 31.78125 -1.421875 
Q 19.53125 -1.421875 13.0625 8.265625 
Q 6.59375 17.96875 6.59375 36.375 
Q 6.59375 54.828125 13.0625 64.515625 
Q 19.53125 74.21875 31.78125 74.21875 
z
" id="DejaVuSans-48"/>
      </defs>
      <g style="fill:#0000ff;" transform="translate(108.9845 291.624251)scale(0.16 -0.16)">
       <use xlink:href="#DejaVuSans-48"/>
       <use x="63.623047" xlink:href="#DejaVuSans-46"/>
       <use x="95.410156" xlink:href="#DejaVuSans-48"/>
       <use x="159.033203" xlink:href="#DejaVuSans-53"/>
      </g>
     </g>
    </g>
    <g id="ytick_2">
     <g id="line2d_21">
      <g>
       <use style="stroke:#000000;stroke-width:0.8;" x="151.6095" xlink:href="#m5d708e5b19" y="237.988735"/>
      </g>
     </g>
     <g id="text_9">
      <!-- 0.10 -->
      <g style="fill:#0000ff;" transform="translate(108.9845 244.067485)scale(0.16 -0.16)">
       <use xlink:href="#DejaVuSans-48"/>
       <use x="63.623047" xlink:href="#DejaVuSans-46"/>
       <use x="95.410156" xlink:href="#DejaVuSans-49"/>
       <use x="159.033203" xlink:href="#DejaVuSans-48"/>
      </g>
     </g>
    </g>
    <g id="ytick_3">
     <g id="line2d_22">
      <g>
       <use style="stroke:#000000;stroke-width:0.8;" x="151.6095" xlink:href="#m5d708e5b19" y="190.431968"/>
      </g>
     </g>
     <g id="text_10">
      <!-- 0.15 -->
      <g style="fill:#0000ff;" transform="translate(108.9845 196.510718)scale(0.16 -0.16)">
       <use xlink:href="#DejaVuSans-48"/>
       <use x="63.623047" xlink:href="#DejaVuSans-46"/>
       <use x="95.410156" xlink:href="#DejaVuSans-49"/>
       <use x="159.033203" xlink:href="#DejaVuSans-53"/>
      </g>
     </g>
    </g>
    <g id="ytick_4">
     <g id="line2d_23">
      <g>
       <use style="stroke:#000000;stroke-width:0.8;" x="151.6095" xlink:href="#m5d708e5b19" y="142.875202"/>
      </g>
     </g>
     <g id="text_11">
      <!-- 0.20 -->
      <defs>
       <path d="M 19.1875 8.296875 
L 53.609375 8.296875 
L 53.609375 0 
L 7.328125 0 
L 7.328125 8.296875 
Q 12.9375 14.109375 22.625 23.890625 
Q 32.328125 33.6875 34.8125 36.53125 
Q 39.546875 41.84375 41.421875 45.53125 
Q 43.3125 49.21875 43.3125 52.78125 
Q 43.3125 58.59375 39.234375 62.25 
Q 35.15625 65.921875 28.609375 65.921875 
Q 23.96875 65.921875 18.8125 64.3125 
Q 13.671875 62.703125 7.8125 59.421875 
L 7.8125 69.390625 
Q 13.765625 71.78125 18.9375 73 
Q 24.125 74.21875 28.421875 74.21875 
Q 39.75 74.21875 46.484375 68.546875 
Q 53.21875 62.890625 53.21875 53.421875 
Q 53.21875 48.921875 51.53125 44.890625 
Q 49.859375 40.875 45.40625 35.40625 
Q 44.1875 33.984375 37.640625 27.21875 
Q 31.109375 20.453125 19.1875 8.296875 
z
" id="DejaVuSans-50"/>
      </defs>
      <g style="fill:#0000ff;" transform="translate(108.9845 148.953952)scale(0.16 -0.16)">
       <use xlink:href="#DejaVuSans-48"/>
       <use x="63.623047" xlink:href="#DejaVuSans-46"/>
       <use x="95.410156" xlink:href="#DejaVuSans-50"/>
       <use x="159.033203" xlink:href="#DejaVuSans-48"/>
      </g>
     </g>
    </g>
    <g id="ytick_5">
     <g id="line2d_24">
      <g>
       <use style="stroke:#000000;stroke-width:0.8;" x="151.6095" xlink:href="#m5d708e5b19" y="95.318435"/>
      </g>
     </g>
     <g id="text_12">
      <!-- 0.25 -->
      <g style="fill:#0000ff;" transform="translate(108.9845 101.397185)scale(0.16 -0.16)">
       <use xlink:href="#DejaVuSans-48"/>
       <use x="63.623047" xlink:href="#DejaVuSans-46"/>
       <use x="95.410156" xlink:href="#DejaVuSans-50"/>
       <use x="159.033203" xlink:href="#DejaVuSans-53"/>
      </g>
     </g>
    </g>
    <g id="ytick_6">
     <g id="line2d_25">
      <g>
       <use style="stroke:#000000;stroke-width:0.8;" x="151.6095" xlink:href="#m5d708e5b19" y="47.761669"/>
      </g>
     </g>
     <g id="text_13">
      <!-- 0.30 -->
      <g style="fill:#0000ff;" transform="translate(108.9845 53.840419)scale(0.16 -0.16)">
       <use xlink:href="#DejaVuSans-48"/>
       <use x="63.623047" xlink:href="#DejaVuSans-46"/>
       <use x="95.410156" xlink:href="#DejaVuSans-51"/>
       <use x="159.033203" xlink:href="#DejaVuSans-48"/>
      </g>
     </g>
    </g>
    <g id="text_14">
     <!-- change-point amplitudes / signal mean -->
     <defs>
      <path d="M 54.890625 33.015625 
L 54.890625 0 
L 45.90625 0 
L 45.90625 32.71875 
Q 45.90625 40.484375 42.875 44.328125 
Q 39.84375 48.1875 33.796875 48.1875 
Q 26.515625 48.1875 22.3125 43.546875 
Q 18.109375 38.921875 18.109375 30.90625 
L 18.109375 0 
L 9.078125 0 
L 9.078125 75.984375 
L 18.109375 75.984375 
L 18.109375 46.1875 
Q 21.34375 51.125 25.703125 53.5625 
Q 30.078125 56 35.796875 56 
Q 45.21875 56 50.046875 50.171875 
Q 54.890625 44.34375 54.890625 33.015625 
z
" id="DejaVuSans-104"/>
      <path d="M 34.28125 27.484375 
Q 23.390625 27.484375 19.1875 25 
Q 14.984375 22.515625 14.984375 16.5 
Q 14.984375 11.71875 18.140625 8.90625 
Q 21.296875 6.109375 26.703125 6.109375 
Q 34.1875 6.109375 38.703125 11.40625 
Q 43.21875 16.703125 43.21875 25.484375 
L 43.21875 27.484375 
z
M 52.203125 31.203125 
L 52.203125 0 
L 43.21875 0 
L 43.21875 8.296875 
Q 40.140625 3.328125 35.546875 0.953125 
Q 30.953125 -1.421875 24.3125 -1.421875 
Q 15.921875 -1.421875 10.953125 3.296875 
Q 6 8.015625 6 15.921875 
Q 6 25.140625 12.171875 29.828125 
Q 18.359375 34.515625 30.609375 34.515625 
L 43.21875 34.515625 
L 43.21875 35.40625 
Q 43.21875 41.609375 39.140625 45 
Q 35.0625 48.390625 27.6875 48.390625 
Q 23 48.390625 18.546875 47.265625 
Q 14.109375 46.140625 10.015625 43.890625 
L 10.015625 52.203125 
Q 14.9375 54.109375 19.578125 55.046875 
Q 24.21875 56 28.609375 56 
Q 40.484375 56 46.34375 49.84375 
Q 52.203125 43.703125 52.203125 31.203125 
z
" id="DejaVuSans-97"/>
      <path d="M 4.890625 31.390625 
L 31.203125 31.390625 
L 31.203125 23.390625 
L 4.890625 23.390625 
z
" id="DejaVuSans-45"/>
      <path d="M 25.390625 72.90625 
L 33.6875 72.90625 
L 8.296875 -9.28125 
L 0 -9.28125 
z
" id="DejaVuSans-47"/>
     </defs>
     <g style="fill:#0000ff;" transform="translate(101.657 320.2825)rotate(-90)scale(0.16 -0.16)">
      <use xlink:href="#DejaVuSans-99"/>
      <use x="54.980469" xlink:href="#DejaVuSans-104"/>
      <use x="118.359375" xlink:href="#DejaVuSans-97"/>
      <use x="179.638672" xlink:href="#DejaVuSans-110"/>
      <use x="243.017578" xlink:href="#DejaVuSans-103"/>
      <use x="306.494141" xlink:href="#DejaVuSans-101"/>
      <use x="368.017578" xlink:href="#DejaVuSans-45"/>
      <use x="404.101562" xlink:href="#DejaVuSans-112"/>
      <use x="467.578125" xlink:href="#DejaVuSans-111"/>
      <use x="528.759766" xlink:href="#DejaVuSans-105"/>
      <use x="556.542969" xlink:href="#DejaVuSans-110"/>
      <use x="619.921875" xlink:href="#DejaVuSans-116"/>
      <use x="659.130859" xlink:href="#DejaVuSans-32"/>
      <use x="690.917969" xlink:href="#DejaVuSans-97"/>
      <use x="752.197266" xlink:href="#DejaVuSans-109"/>
      <use x="849.609375" xlink:href="#DejaVuSans-112"/>
      <use x="913.085938" xlink:href="#DejaVuSans-108"/>
      <use x="940.869141" xlink:href="#DejaVuSans-105"/>
      <use x="968.652344" xlink:href="#DejaVuSans-116"/>
      <use x="1007.861328" xlink:href="#DejaVuSans-117"/>
      <use x="1071.240234" xlink:href="#DejaVuSans-100"/>
      <use x="1134.716797" xlink:href="#DejaVuSans-101"/>
      <use x="1196.240234" xlink:href="#DejaVuSans-115"/>
      <use x="1248.339844" xlink:href="#DejaVuSans-32"/>
      <use x="1280.126953" xlink:href="#DejaVuSans-47"/>
      <use x="1313.818359" xlink:href="#DejaVuSans-32"/>
      <use x="1345.605469" xlink:href="#DejaVuSans-115"/>
      <use x="1397.705078" xlink:href="#DejaVuSans-105"/>
      <use x="1425.488281" xlink:href="#DejaVuSans-103"/>
      <use x="1488.964844" xlink:href="#DejaVuSans-110"/>
      <use x="1552.34375" xlink:href="#DejaVuSans-97"/>
      <use x="1613.623047" xlink:href="#DejaVuSans-108"/>
      <use x="1641.40625" xlink:href="#DejaVuSans-32"/>
      <use x="1673.193359" xlink:href="#DejaVuSans-109"/>
      <use x="1770.605469" xlink:href="#DejaVuSans-101"/>
      <use x="1832.128906" xlink:href="#DejaVuSans-97"/>
      <use x="1893.408203" xlink:href="#DejaVuSans-110"/>
     </g>
    </g>
   </g>
   <g id="line2d_26">
    <path clip-path="url(#p5a707efe25)" d="M 0 0 
" style="fill:none;stroke:#000000;stroke-linecap:square;"/>
   </g>
   <g id="line2d_27">
    <path clip-path="url(#p5a707efe25)" d="M 0 0 
" style="fill:none;stroke:#000000;stroke-linecap:square;"/>
   </g>
   <g id="line2d_28">
    <path clip-path="url(#p5a707efe25)" d="M 0 0 
" style="fill:none;stroke:#000000;stroke-linecap:square;"/>
   </g>
   <g id="line2d_29">
    <path clip-path="url(#p5a707efe25)" d="M 0 0 
" style="fill:none;stroke:#000000;stroke-linecap:square;"/>
   </g>
   <g id="line2d_30"/>
   <g id="line2d_31">
    <path clip-path="url(#p5a707efe25)" d="M 178.3935 276.492513 
L 178.3935 284.70125 
" style="fill:none;stroke:#000000;stroke-linecap:square;"/>
   </g>
   <g id="line2d_32">
    <path clip-path="url(#p5a707efe25)" d="M 178.3935 249.707994 
L 178.3935 214.502899 
" style="fill:none;stroke:#000000;stroke-linecap:square;"/>
   </g>
   <g id="line2d_33">
    <path clip-path="url(#p5a707efe25)" d="M 176.1615 284.70125 
L 180.6255 284.70125 
" style="fill:none;stroke:#000000;stroke-linecap:square;"/>
   </g>
   <g id="line2d_34">
    <path clip-path="url(#p5a707efe25)" d="M 176.1615 214.502899 
L 180.6255 214.502899 
" style="fill:none;stroke:#000000;stroke-linecap:square;"/>
   </g>
   <g id="line2d_35">
    <defs>
     <path d="M 0 3 
C 0.795609 3 1.55874 2.683901 2.12132 2.12132 
C 2.683901 1.55874 3 0.795609 3 0 
C 3 -0.795609 2.683901 -1.55874 2.12132 -2.12132 
C 1.55874 -2.683901 0.795609 -3 0 -3 
C -0.795609 -3 -1.55874 -2.683901 -2.12132 -2.12132 
C -2.683901 -1.55874 -3 -0.795609 -3 0 
C -3 0.795609 -2.683901 1.55874 -2.12132 2.12132 
C -1.55874 2.683901 -0.795609 3 0 3 
z
" id="m3ad79920c1" style="stroke:#000000;"/>
    </defs>
    <g clip-path="url(#p5a707efe25)">
     <use style="fill-opacity:0;stroke:#000000;" x="178.3935" xlink:href="#m3ad79920c1" y="42.78125"/>
     <use style="fill-opacity:0;stroke:#000000;" x="178.3935" xlink:href="#m3ad79920c1" y="55.912277"/>
    </g>
   </g>
   <g id="line2d_36">
    <path clip-path="url(#p5a707efe25)" d="M 196.2495 267.827645 
L 196.2495 277.318056 
" style="fill:none;stroke:#000000;stroke-linecap:square;"/>
   </g>
   <g id="line2d_37">
    <path clip-path="url(#p5a707efe25)" d="M 196.2495 246.381477 
L 196.2495 214.502899 
" style="fill:none;stroke:#000000;stroke-linecap:square;"/>
   </g>
   <g id="line2d_38">
    <path clip-path="url(#p5a707efe25)" d="M 194.0175 277.318056 
L 198.4815 277.318056 
" style="fill:none;stroke:#000000;stroke-linecap:square;"/>
   </g>
   <g id="line2d_39">
    <path clip-path="url(#p5a707efe25)" d="M 194.0175 214.502899 
L 198.4815 214.502899 
" style="fill:none;stroke:#000000;stroke-linecap:square;"/>
   </g>
   <g id="line2d_40">
    <g clip-path="url(#p5a707efe25)">
     <use style="fill-opacity:0;stroke:#000000;" x="196.2495" xlink:href="#m3ad79920c1" y="42.78125"/>
     <use style="fill-opacity:0;stroke:#000000;" x="196.2495" xlink:href="#m3ad79920c1" y="55.912277"/>
    </g>
   </g>
   <g id="line2d_41">
    <path clip-path="url(#p5a707efe25)" d="M 214.1055 262.468033 
L 214.1055 270.276295 
" style="fill:none;stroke:#000000;stroke-linecap:square;"/>
   </g>
   <g id="line2d_42">
    <path clip-path="url(#p5a707efe25)" d="M 214.1055 238.177789 
L 214.1055 214.502899 
" style="fill:none;stroke:#000000;stroke-linecap:square;"/>
   </g>
   <g id="line2d_43">
    <path clip-path="url(#p5a707efe25)" d="M 211.8735 270.276295 
L 216.3375 270.276295 
" style="fill:none;stroke:#000000;stroke-linecap:square;"/>
   </g>
   <g id="line2d_44">
    <path clip-path="url(#p5a707efe25)" d="M 211.8735 214.502899 
L 216.3375 214.502899 
" style="fill:none;stroke:#000000;stroke-linecap:square;"/>
   </g>
   <g id="line2d_45">
    <g clip-path="url(#p5a707efe25)">
     <use style="fill-opacity:0;stroke:#000000;" x="214.1055" xlink:href="#m3ad79920c1" y="42.78125"/>
     <use style="fill-opacity:0;stroke:#000000;" x="214.1055" xlink:href="#m3ad79920c1" y="55.912277"/>
    </g>
   </g>
   <g id="line2d_46">
    <path clip-path="url(#p5a707efe25)" d="M 231.9615 259.184327 
L 231.9615 266.119699 
" style="fill:none;stroke:#000000;stroke-linecap:square;"/>
   </g>
   <g id="line2d_47">
    <path clip-path="url(#p5a707efe25)" d="M 231.9615 234.848189 
L 231.9615 214.502899 
" style="fill:none;stroke:#000000;stroke-linecap:square;"/>
   </g>
   <g id="line2d_48">
    <path clip-path="url(#p5a707efe25)" d="M 229.7295 266.119699 
L 234.1935 266.119699 
" style="fill:none;stroke:#000000;stroke-linecap:square;"/>
   </g>
   <g id="line2d_49">
    <path clip-path="url(#p5a707efe25)" d="M 229.7295 214.502899 
L 234.1935 214.502899 
" style="fill:none;stroke:#000000;stroke-linecap:square;"/>
   </g>
   <g id="line2d_50">
    <g clip-path="url(#p5a707efe25)">
     <use style="fill-opacity:0;stroke:#000000;" x="231.9615" xlink:href="#m3ad79920c1" y="42.78125"/>
     <use style="fill-opacity:0;stroke:#000000;" x="231.9615" xlink:href="#m3ad79920c1" y="55.912277"/>
    </g>
   </g>
   <g id="line2d_51">
    <path clip-path="url(#p5a707efe25)" d="M 249.8175 254.970435 
L 249.8175 263.161676 
" style="fill:none;stroke:#000000;stroke-linecap:square;"/>
   </g>
   <g id="line2d_52">
    <path clip-path="url(#p5a707efe25)" d="M 249.8175 232.269743 
L 249.8175 214.502899 
" style="fill:none;stroke:#000000;stroke-linecap:square;"/>
   </g>
   <g id="line2d_53">
    <path clip-path="url(#p5a707efe25)" d="M 247.5855 263.161676 
L 252.0495 263.161676 
" style="fill:none;stroke:#000000;stroke-linecap:square;"/>
   </g>
   <g id="line2d_54">
    <path clip-path="url(#p5a707efe25)" d="M 247.5855 214.502899 
L 252.0495 214.502899 
" style="fill:none;stroke:#000000;stroke-linecap:square;"/>
   </g>
   <g id="line2d_55">
    <g clip-path="url(#p5a707efe25)">
     <use style="fill-opacity:0;stroke:#000000;" x="249.8175" xlink:href="#m3ad79920c1" y="42.78125"/>
     <use style="fill-opacity:0;stroke:#000000;" x="249.8175" xlink:href="#m3ad79920c1" y="55.912277"/>
    </g>
   </g>
   <g id="line2d_56">
    <path clip-path="url(#p5a707efe25)" d="M 267.6735 252.384433 
L 267.6735 258.783402 
" style="fill:none;stroke:#000000;stroke-linecap:square;"/>
   </g>
   <g id="line2d_57">
    <path clip-path="url(#p5a707efe25)" d="M 267.6735 226.861115 
L 267.6735 214.502899 
" style="fill:none;stroke:#000000;stroke-linecap:square;"/>
   </g>
   <g id="line2d_58">
    <path clip-path="url(#p5a707efe25)" d="M 265.4415 258.783402 
L 269.9055 258.783402 
" style="fill:none;stroke:#000000;stroke-linecap:square;"/>
   </g>
   <g id="line2d_59">
    <path clip-path="url(#p5a707efe25)" d="M 265.4415 214.502899 
L 269.9055 214.502899 
" style="fill:none;stroke:#000000;stroke-linecap:square;"/>
   </g>
   <g id="line2d_60">
    <g clip-path="url(#p5a707efe25)">
     <use style="fill-opacity:0;stroke:#000000;" x="267.6735" xlink:href="#m3ad79920c1" y="42.78125"/>
     <use style="fill-opacity:0;stroke:#000000;" x="267.6735" xlink:href="#m3ad79920c1" y="55.912277"/>
    </g>
   </g>
   <g id="line2d_61">
    <path clip-path="url(#p5a707efe25)" d="M 285.5295 250.997622 
L 285.5295 255.735253 
" style="fill:none;stroke:#000000;stroke-linecap:square;"/>
   </g>
   <g id="line2d_62">
    <path clip-path="url(#p5a707efe25)" d="M 285.5295 222.741709 
L 285.5295 214.502899 
" style="fill:none;stroke:#000000;stroke-linecap:square;"/>
   </g>
   <g id="line2d_63">
    <path clip-path="url(#p5a707efe25)" d="M 283.2975 255.735253 
L 287.7615 255.735253 
" style="fill:none;stroke:#000000;stroke-linecap:square;"/>
   </g>
   <g id="line2d_64">
    <path clip-path="url(#p5a707efe25)" d="M 283.2975 214.502899 
L 287.7615 214.502899 
" style="fill:none;stroke:#000000;stroke-linecap:square;"/>
   </g>
   <g id="line2d_65">
    <g clip-path="url(#p5a707efe25)">
     <use style="fill-opacity:0;stroke:#000000;" x="285.5295" xlink:href="#m3ad79920c1" y="42.78125"/>
     <use style="fill-opacity:0;stroke:#000000;" x="285.5295" xlink:href="#m3ad79920c1" y="55.912277"/>
    </g>
   </g>
   <g id="line2d_66">
    <path clip-path="url(#p5a707efe25)" d="M 303.3855 245.340197 
L 303.3855 249.707994 
" style="fill:none;stroke:#000000;stroke-linecap:square;"/>
   </g>
   <g id="line2d_67">
    <path clip-path="url(#p5a707efe25)" d="M 303.3855 174.855243 
L 303.3855 174.855243 
" style="fill:none;stroke:#000000;stroke-linecap:square;"/>
   </g>
   <g id="line2d_68">
    <path clip-path="url(#p5a707efe25)" d="M 301.1535 249.707994 
L 305.6175 249.707994 
" style="fill:none;stroke:#000000;stroke-linecap:square;"/>
   </g>
   <g id="line2d_69">
    <path clip-path="url(#p5a707efe25)" d="M 301.1535 174.855243 
L 305.6175 174.855243 
" style="fill:none;stroke:#000000;stroke-linecap:square;"/>
   </g>
   <g id="line2d_70">
    <g clip-path="url(#p5a707efe25)">
     <use style="fill-opacity:0;stroke:#000000;" x="303.3855" xlink:href="#m3ad79920c1" y="42.78125"/>
     <use style="fill-opacity:0;stroke:#000000;" x="303.3855" xlink:href="#m3ad79920c1" y="55.912277"/>
    </g>
   </g>
   <g id="line2d_71">
    <path clip-path="url(#p5a707efe25)" d="M 321.2415 240.218165 
L 321.2415 248.464037 
" style="fill:none;stroke:#000000;stroke-linecap:square;"/>
   </g>
   <g id="line2d_72">
    <path clip-path="url(#p5a707efe25)" d="M 321.2415 135.207588 
L 321.2415 42.78125 
" style="fill:none;stroke:#000000;stroke-linecap:square;"/>
   </g>
   <g id="line2d_73">
    <path clip-path="url(#p5a707efe25)" d="M 319.0095 248.464037 
L 323.4735 248.464037 
" style="fill:none;stroke:#000000;stroke-linecap:square;"/>
   </g>
   <g id="line2d_74">
    <path clip-path="url(#p5a707efe25)" d="M 319.0095 42.78125 
L 323.4735 42.78125 
" style="fill:none;stroke:#000000;stroke-linecap:square;"/>
   </g>
   <g id="line2d_75"/>
   <g id="line2d_76">
    <path clip-path="url(#p5a707efe25)" d="M 339.0975 234.848189 
L 339.0975 244.298917 
" style="fill:none;stroke:#000000;stroke-linecap:square;"/>
   </g>
   <g id="line2d_77">
    <path clip-path="url(#p5a707efe25)" d="M 339.0975 95.559932 
L 339.0975 42.78125 
" style="fill:none;stroke:#000000;stroke-linecap:square;"/>
   </g>
   <g id="line2d_78">
    <path clip-path="url(#p5a707efe25)" d="M 336.8655 244.298917 
L 341.3295 244.298917 
" style="fill:none;stroke:#000000;stroke-linecap:square;"/>
   </g>
   <g id="line2d_79">
    <path clip-path="url(#p5a707efe25)" d="M 336.8655 42.78125 
L 341.3295 42.78125 
" style="fill:none;stroke:#000000;stroke-linecap:square;"/>
   </g>
   <g id="line2d_80"/>
   <g id="line2d_81">
    <path clip-path="url(#p5a707efe25)" d="M 356.9535 230.98052 
L 356.9535 236.137413 
" style="fill:none;stroke:#000000;stroke-linecap:square;"/>
   </g>
   <g id="line2d_82">
    <path clip-path="url(#p5a707efe25)" d="M 356.9535 55.912277 
L 356.9535 42.78125 
" style="fill:none;stroke:#000000;stroke-linecap:square;"/>
   </g>
   <g id="line2d_83">
    <path clip-path="url(#p5a707efe25)" d="M 354.7215 236.137413 
L 359.1855 236.137413 
" style="fill:none;stroke:#000000;stroke-linecap:square;"/>
   </g>
   <g id="line2d_84">
    <path clip-path="url(#p5a707efe25)" d="M 354.7215 42.78125 
L 359.1855 42.78125 
" style="fill:none;stroke:#000000;stroke-linecap:square;"/>
   </g>
   <g id="line2d_85"/>
   <g id="line2d_86">
    <path clip-path="url(#p5a707efe25)" d="M 374.8095 230.98052 
L 374.8095 236.137413 
" style="fill:none;stroke:#000000;stroke-linecap:square;"/>
   </g>
   <g id="line2d_87">
    <path clip-path="url(#p5a707efe25)" d="M 374.8095 55.912277 
L 374.8095 42.78125 
" style="fill:none;stroke:#000000;stroke-linecap:square;"/>
   </g>
   <g id="line2d_88">
    <path clip-path="url(#p5a707efe25)" d="M 372.5775 236.137413 
L 377.0415 236.137413 
" style="fill:none;stroke:#000000;stroke-linecap:square;"/>
   </g>
   <g id="line2d_89">
    <path clip-path="url(#p5a707efe25)" d="M 372.5775 42.78125 
L 377.0415 42.78125 
" style="fill:none;stroke:#000000;stroke-linecap:square;"/>
   </g>
   <g id="line2d_90"/>
   <g id="line2d_91">
    <path clip-path="url(#p5a707efe25)" d="M 392.6655 218.622304 
L 392.6655 230.98052 
" style="fill:none;stroke:#000000;stroke-linecap:square;"/>
   </g>
   <g id="line2d_92">
    <path clip-path="url(#p5a707efe25)" d="M 392.6655 52.62952 
L 392.6655 42.78125 
" style="fill:none;stroke:#000000;stroke-linecap:square;"/>
   </g>
   <g id="line2d_93">
    <path clip-path="url(#p5a707efe25)" d="M 390.4335 230.98052 
L 394.8975 230.98052 
" style="fill:none;stroke:#000000;stroke-linecap:square;"/>
   </g>
   <g id="line2d_94">
    <path clip-path="url(#p5a707efe25)" d="M 390.4335 42.78125 
L 394.8975 42.78125 
" style="fill:none;stroke:#000000;stroke-linecap:square;"/>
   </g>
   <g id="line2d_95"/>
   <g id="line2d_96">
    <path clip-path="url(#p5a707efe25)" d="M 410.5215 135.207588 
L 410.5215 214.502899 
" style="fill:none;stroke:#000000;stroke-linecap:square;"/>
   </g>
   <g id="line2d_97">
    <path clip-path="url(#p5a707efe25)" d="M 410.5215 49.346764 
L 410.5215 42.78125 
" style="fill:none;stroke:#000000;stroke-linecap:square;"/>
   </g>
   <g id="line2d_98">
    <path clip-path="url(#p5a707efe25)" d="M 408.2895 214.502899 
L 412.7535 214.502899 
" style="fill:none;stroke:#000000;stroke-linecap:square;"/>
   </g>
   <g id="line2d_99">
    <path clip-path="url(#p5a707efe25)" d="M 408.2895 42.78125 
L 412.7535 42.78125 
" style="fill:none;stroke:#000000;stroke-linecap:square;"/>
   </g>
   <g id="line2d_100"/>
   <g id="line2d_101">
    <path clip-path="url(#p5a707efe25)" d="M 428.3775 135.207588 
L 428.3775 214.502899 
" style="fill:none;stroke:#000000;stroke-linecap:square;"/>
   </g>
   <g id="line2d_102">
    <path clip-path="url(#p5a707efe25)" d="M 428.3775 49.346764 
L 428.3775 42.78125 
" style="fill:none;stroke:#000000;stroke-linecap:square;"/>
   </g>
   <g id="line2d_103">
    <path clip-path="url(#p5a707efe25)" d="M 426.1455 214.502899 
L 430.6095 214.502899 
" style="fill:none;stroke:#000000;stroke-linecap:square;"/>
   </g>
   <g id="line2d_104">
    <path clip-path="url(#p5a707efe25)" d="M 426.1455 42.78125 
L 430.6095 42.78125 
" style="fill:none;stroke:#000000;stroke-linecap:square;"/>
   </g>
   <g id="line2d_105"/>
   <g id="line2d_106">
    <path clip-path="url(#p5a707efe25)" d="M 446.2335 135.207588 
L 446.2335 214.502899 
" style="fill:none;stroke:#000000;stroke-linecap:square;"/>
   </g>
   <g id="line2d_107">
    <path clip-path="url(#p5a707efe25)" d="M 446.2335 49.346764 
L 446.2335 42.78125 
" style="fill:none;stroke:#000000;stroke-linecap:square;"/>
   </g>
   <g id="line2d_108">
    <path clip-path="url(#p5a707efe25)" d="M 444.0015 214.502899 
L 448.4655 214.502899 
" style="fill:none;stroke:#000000;stroke-linecap:square;"/>
   </g>
   <g id="line2d_109">
    <path clip-path="url(#p5a707efe25)" d="M 444.0015 42.78125 
L 448.4655 42.78125 
" style="fill:none;stroke:#000000;stroke-linecap:square;"/>
   </g>
   <g id="line2d_110"/>
   <g id="line2d_111">
    <path clip-path="url(#p5a707efe25)" d="M 464.0895 135.207588 
L 464.0895 214.502899 
" style="fill:none;stroke:#000000;stroke-linecap:square;"/>
   </g>
   <g id="line2d_112">
    <path clip-path="url(#p5a707efe25)" d="M 464.0895 49.346764 
L 464.0895 42.78125 
" style="fill:none;stroke:#000000;stroke-linecap:square;"/>
   </g>
   <g id="line2d_113">
    <path clip-path="url(#p5a707efe25)" d="M 461.8575 214.502899 
L 466.3215 214.502899 
" style="fill:none;stroke:#000000;stroke-linecap:square;"/>
   </g>
   <g id="line2d_114">
    <path clip-path="url(#p5a707efe25)" d="M 461.8575 42.78125 
L 466.3215 42.78125 
" style="fill:none;stroke:#000000;stroke-linecap:square;"/>
   </g>
   <g id="line2d_115"/>
   <g id="line2d_116">
    <path clip-path="url(#p5a707efe25)" d="M 481.9455 135.207588 
L 481.9455 214.502899 
" style="fill:none;stroke:#000000;stroke-linecap:square;"/>
   </g>
   <g id="line2d_117">
    <path clip-path="url(#p5a707efe25)" d="M 481.9455 49.346764 
L 481.9455 42.78125 
" style="fill:none;stroke:#000000;stroke-linecap:square;"/>
   </g>
   <g id="line2d_118">
    <path clip-path="url(#p5a707efe25)" d="M 479.7135 214.502899 
L 484.1775 214.502899 
" style="fill:none;stroke:#000000;stroke-linecap:square;"/>
   </g>
   <g id="line2d_119">
    <path clip-path="url(#p5a707efe25)" d="M 479.7135 42.78125 
L 484.1775 42.78125 
" style="fill:none;stroke:#000000;stroke-linecap:square;"/>
   </g>
   <g id="line2d_120"/>
   <g id="line2d_121">
    <path clip-path="url(#p5a707efe25)" d="M 499.8015 135.207588 
L 499.8015 214.502899 
" style="fill:none;stroke:#000000;stroke-linecap:square;"/>
   </g>
   <g id="line2d_122">
    <path clip-path="url(#p5a707efe25)" d="M 499.8015 49.346764 
L 499.8015 42.78125 
" style="fill:none;stroke:#000000;stroke-linecap:square;"/>
   </g>
   <g id="line2d_123">
    <path clip-path="url(#p5a707efe25)" d="M 497.5695 214.502899 
L 502.0335 214.502899 
" style="fill:none;stroke:#000000;stroke-linecap:square;"/>
   </g>
   <g id="line2d_124">
    <path clip-path="url(#p5a707efe25)" d="M 497.5695 42.78125 
L 502.0335 42.78125 
" style="fill:none;stroke:#000000;stroke-linecap:square;"/>
   </g>
   <g id="line2d_125"/>
   <g id="patch_3">
    <path clip-path="url(#p5a707efe25)" d="z
" style="fill:#0000ff;opacity:0.2;stroke:#0000ff;stroke-linejoin:miter;stroke-width:0.2;"/>
   </g>
   <g id="patch_4">
    <path clip-path="url(#p5a707efe25)" d="M 173.9295 276.492513 
L 182.8575 276.492513 
L 182.8575 249.707994 
L 173.9295 249.707994 
L 173.9295 276.492513 
z
" style="fill:#0000ff;opacity:0.2;stroke:#0000ff;stroke-linejoin:miter;stroke-width:0.2;"/>
   </g>
   <g id="patch_5">
    <path clip-path="url(#p5a707efe25)" d="M 191.7855 267.827645 
L 200.7135 267.827645 
L 200.7135 246.381477 
L 191.7855 246.381477 
L 191.7855 267.827645 
z
" style="fill:#0000ff;opacity:0.2;stroke:#0000ff;stroke-linejoin:miter;stroke-width:0.2;"/>
   </g>
   <g id="patch_6">
    <path clip-path="url(#p5a707efe25)" d="M 209.6415 262.468033 
L 218.5695 262.468033 
L 218.5695 238.177789 
L 209.6415 238.177789 
L 209.6415 262.468033 
z
" style="fill:#0000ff;opacity:0.2;stroke:#0000ff;stroke-linejoin:miter;stroke-width:0.2;"/>
   </g>
   <g id="patch_7">
    <path clip-path="url(#p5a707efe25)" d="M 227.4975 259.184327 
L 236.4255 259.184327 
L 236.4255 234.848189 
L 227.4975 234.848189 
L 227.4975 259.184327 
z
" style="fill:#0000ff;opacity:0.2;stroke:#0000ff;stroke-linejoin:miter;stroke-width:0.2;"/>
   </g>
   <g id="patch_8">
    <path clip-path="url(#p5a707efe25)" d="M 245.3535 254.970435 
L 254.2815 254.970435 
L 254.2815 232.269743 
L 245.3535 232.269743 
L 245.3535 254.970435 
z
" style="fill:#0000ff;opacity:0.2;stroke:#0000ff;stroke-linejoin:miter;stroke-width:0.2;"/>
   </g>
   <g id="patch_9">
    <path clip-path="url(#p5a707efe25)" d="M 263.2095 252.384433 
L 272.1375 252.384433 
L 272.1375 226.861115 
L 263.2095 226.861115 
L 263.2095 252.384433 
z
" style="fill:#0000ff;opacity:0.2;stroke:#0000ff;stroke-linejoin:miter;stroke-width:0.2;"/>
   </g>
   <g id="patch_10">
    <path clip-path="url(#p5a707efe25)" d="M 281.0655 250.997622 
L 289.9935 250.997622 
L 289.9935 222.741709 
L 281.0655 222.741709 
L 281.0655 250.997622 
z
" style="fill:#0000ff;opacity:0.2;stroke:#0000ff;stroke-linejoin:miter;stroke-width:0.2;"/>
   </g>
   <g id="patch_11">
    <path clip-path="url(#p5a707efe25)" d="M 298.9215 245.340197 
L 307.8495 245.340197 
L 307.8495 174.855243 
L 298.9215 174.855243 
L 298.9215 245.340197 
z
" style="fill:#0000ff;opacity:0.2;stroke:#0000ff;stroke-linejoin:miter;stroke-width:0.2;"/>
   </g>
   <g id="patch_12">
    <path clip-path="url(#p5a707efe25)" d="M 316.7775 240.218165 
L 325.7055 240.218165 
L 325.7055 135.207588 
L 316.7775 135.207588 
L 316.7775 240.218165 
z
" style="fill:#0000ff;opacity:0.2;stroke:#0000ff;stroke-linejoin:miter;stroke-width:0.2;"/>
   </g>
   <g id="patch_13">
    <path clip-path="url(#p5a707efe25)" d="M 334.6335 234.848189 
L 343.5615 234.848189 
L 343.5615 95.559932 
L 334.6335 95.559932 
L 334.6335 234.848189 
z
" style="fill:#0000ff;opacity:0.2;stroke:#0000ff;stroke-linejoin:miter;stroke-width:0.2;"/>
   </g>
   <g id="patch_14">
    <path clip-path="url(#p5a707efe25)" d="M 352.4895 230.98052 
L 361.4175 230.98052 
L 361.4175 55.912277 
L 352.4895 55.912277 
L 352.4895 230.98052 
z
" style="fill:#0000ff;opacity:0.2;stroke:#0000ff;stroke-linejoin:miter;stroke-width:0.2;"/>
   </g>
   <g id="patch_15">
    <path clip-path="url(#p5a707efe25)" d="M 370.3455 230.98052 
L 379.2735 230.98052 
L 379.2735 55.912277 
L 370.3455 55.912277 
L 370.3455 230.98052 
z
" style="fill:#0000ff;opacity:0.2;stroke:#0000ff;stroke-linejoin:miter;stroke-width:0.2;"/>
   </g>
   <g id="patch_16">
    <path clip-path="url(#p5a707efe25)" d="M 388.2015 218.622304 
L 397.1295 218.622304 
L 397.1295 52.62952 
L 388.2015 52.62952 
L 388.2015 218.622304 
z
" style="fill:#0000ff;opacity:0.2;stroke:#0000ff;stroke-linejoin:miter;stroke-width:0.2;"/>
   </g>
   <g id="patch_17">
    <path clip-path="url(#p5a707efe25)" d="M 406.0575 135.207588 
L 414.9855 135.207588 
L 414.9855 49.346764 
L 406.0575 49.346764 
L 406.0575 135.207588 
z
" style="fill:#0000ff;opacity:0.2;stroke:#0000ff;stroke-linejoin:miter;stroke-width:0.2;"/>
   </g>
   <g id="patch_18">
    <path clip-path="url(#p5a707efe25)" d="M 423.9135 135.207588 
L 432.8415 135.207588 
L 432.8415 49.346764 
L 423.9135 49.346764 
L 423.9135 135.207588 
z
" style="fill:#0000ff;opacity:0.2;stroke:#0000ff;stroke-linejoin:miter;stroke-width:0.2;"/>
   </g>
   <g id="patch_19">
    <path clip-path="url(#p5a707efe25)" d="M 441.7695 135.207588 
L 450.6975 135.207588 
L 450.6975 49.346764 
L 441.7695 49.346764 
L 441.7695 135.207588 
z
" style="fill:#0000ff;opacity:0.2;stroke:#0000ff;stroke-linejoin:miter;stroke-width:0.2;"/>
   </g>
   <g id="patch_20">
    <path clip-path="url(#p5a707efe25)" d="M 459.6255 135.207588 
L 468.5535 135.207588 
L 468.5535 49.346764 
L 459.6255 49.346764 
L 459.6255 135.207588 
z
" style="fill:#0000ff;opacity:0.2;stroke:#0000ff;stroke-linejoin:miter;stroke-width:0.2;"/>
   </g>
   <g id="patch_21">
    <path clip-path="url(#p5a707efe25)" d="M 477.4815 135.207588 
L 486.4095 135.207588 
L 486.4095 49.346764 
L 477.4815 49.346764 
L 477.4815 135.207588 
z
" style="fill:#0000ff;opacity:0.2;stroke:#0000ff;stroke-linejoin:miter;stroke-width:0.2;"/>
   </g>
   <g id="patch_22">
    <path clip-path="url(#p5a707efe25)" d="M 495.3375 135.207588 
L 504.2655 135.207588 
L 504.2655 49.346764 
L 495.3375 49.346764 
L 495.3375 135.207588 
z
" style="fill:#0000ff;opacity:0.2;stroke:#0000ff;stroke-linejoin:miter;stroke-width:0.2;"/>
   </g>
   <g id="line2d_126">
    <path clip-path="url(#p5a707efe25)" d="M 0 0 
" style="fill:none;stroke:#ff7f0e;stroke-linecap:square;"/>
   </g>
   <g id="line2d_127">
    <path clip-path="url(#p5a707efe25)" d="M 173.9295 263.161676 
L 182.8575 263.161676 
" style="fill:none;stroke:#ff7f0e;stroke-linecap:square;"/>
   </g>
   <g id="line2d_128">
    <path clip-path="url(#p5a707efe25)" d="M 191.7855 255.735253 
L 200.7135 255.735253 
" style="fill:none;stroke:#ff7f0e;stroke-linecap:square;"/>
   </g>
   <g id="line2d_129">
    <path clip-path="url(#p5a707efe25)" d="M 209.6415 252.481616 
L 218.5695 252.481616 
" style="fill:none;stroke:#ff7f0e;stroke-linecap:square;"/>
   </g>
   <g id="line2d_130">
    <path clip-path="url(#p5a707efe25)" d="M 227.4975 250.997622 
L 236.4255 250.997622 
" style="fill:none;stroke:#ff7f0e;stroke-linecap:square;"/>
   </g>
   <g id="line2d_131">
    <path clip-path="url(#p5a707efe25)" d="M 245.3535 249.086015 
L 254.2815 249.086015 
" style="fill:none;stroke:#ff7f0e;stroke-linecap:square;"/>
   </g>
   <g id="line2d_132">
    <path clip-path="url(#p5a707efe25)" d="M 263.2095 246.381477 
L 272.1375 246.381477 
" style="fill:none;stroke:#ff7f0e;stroke-linecap:square;"/>
   </g>
   <g id="line2d_133">
    <path clip-path="url(#p5a707efe25)" d="M 281.0655 244.298917 
L 289.9935 244.298917 
" style="fill:none;stroke:#ff7f0e;stroke-linecap:square;"/>
   </g>
   <g id="line2d_134">
    <path clip-path="url(#p5a707efe25)" d="M 298.9215 233.558966 
L 307.8495 233.558966 
" style="fill:none;stroke:#ff7f0e;stroke-linecap:square;"/>
   </g>
   <g id="line2d_135">
    <path clip-path="url(#p5a707efe25)" d="M 316.7775 230.98052 
L 325.7055 230.98052 
" style="fill:none;stroke:#ff7f0e;stroke-linecap:square;"/>
   </g>
   <g id="line2d_136">
    <path clip-path="url(#p5a707efe25)" d="M 334.6335 222.741709 
L 343.5615 222.741709 
" style="fill:none;stroke:#ff7f0e;stroke-linecap:square;"/>
   </g>
   <g id="line2d_137">
    <path clip-path="url(#p5a707efe25)" d="M 352.4895 214.502899 
L 361.4175 214.502899 
" style="fill:none;stroke:#ff7f0e;stroke-linecap:square;"/>
   </g>
   <g id="line2d_138">
    <path clip-path="url(#p5a707efe25)" d="M 370.3455 214.502899 
L 379.2735 214.502899 
" style="fill:none;stroke:#ff7f0e;stroke-linecap:square;"/>
   </g>
   <g id="line2d_139">
    <path clip-path="url(#p5a707efe25)" d="M 388.2015 135.207588 
L 397.1295 135.207588 
" style="fill:none;stroke:#ff7f0e;stroke-linecap:square;"/>
   </g>
   <g id="line2d_140">
    <path clip-path="url(#p5a707efe25)" d="M 406.0575 55.912277 
L 414.9855 55.912277 
" style="fill:none;stroke:#ff7f0e;stroke-linecap:square;"/>
   </g>
   <g id="line2d_141">
    <path clip-path="url(#p5a707efe25)" d="M 423.9135 55.912277 
L 432.8415 55.912277 
" style="fill:none;stroke:#ff7f0e;stroke-linecap:square;"/>
   </g>
   <g id="line2d_142">
    <path clip-path="url(#p5a707efe25)" d="M 441.7695 55.912277 
L 450.6975 55.912277 
" style="fill:none;stroke:#ff7f0e;stroke-linecap:square;"/>
   </g>
   <g id="line2d_143">
    <path clip-path="url(#p5a707efe25)" d="M 459.6255 55.912277 
L 468.5535 55.912277 
" style="fill:none;stroke:#ff7f0e;stroke-linecap:square;"/>
   </g>
   <g id="line2d_144">
    <path clip-path="url(#p5a707efe25)" d="M 477.4815 55.912277 
L 486.4095 55.912277 
" style="fill:none;stroke:#ff7f0e;stroke-linecap:square;"/>
   </g>
   <g id="line2d_145">
    <path clip-path="url(#p5a707efe25)" d="M 495.3375 55.912277 
L 504.2655 55.912277 
" style="fill:none;stroke:#ff7f0e;stroke-linecap:square;"/>
   </g>
   <g id="patch_23">
    <path d="M 151.6095 296.79725 
L 151.6095 30.68525 
" style="fill:none;stroke:#000000;stroke-linecap:square;stroke-linejoin:miter;stroke-width:0.8;"/>
   </g>
   <g id="patch_24">
    <path d="M 508.7295 296.79725 
L 508.7295 30.68525 
" style="fill:none;stroke:#000000;stroke-linecap:square;stroke-linejoin:miter;stroke-width:0.8;"/>
   </g>
   <g id="patch_25">
    <path d="M 151.6095 296.79725 
L 508.7295 296.79725 
" style="fill:none;stroke:#000000;stroke-linecap:square;stroke-linejoin:miter;stroke-width:0.8;"/>
   </g>
   <g id="patch_26">
    <path d="M 151.6095 30.68525 
L 508.7295 30.68525 
" style="fill:none;stroke:#000000;stroke-linecap:square;stroke-linejoin:miter;stroke-width:0.8;"/>
   </g>
  </g>
  <g id="axes_2">
   <g id="matplotlib.axis_3">
    <g id="ytick_7">
     <g id="line2d_146">
      <defs>
       <path d="M 0 0 
L 3.5 0 
" id="m71e577298b" style="stroke:#000000;stroke-width:0.8;"/>
      </defs>
      <g>
       <use style="stroke:#000000;stroke-width:0.8;" x="508.7295" xlink:href="#m71e577298b" y="284.70125"/>
      </g>
     </g>
     <g id="text_15">
      <!-- 0 -->
      <g style="fill:#dc143c;" transform="translate(515.7295 290.78)scale(0.16 -0.16)">
       <use xlink:href="#DejaVuSans-48"/>
      </g>
     </g>
    </g>
    <g id="ytick_8">
     <g id="line2d_147">
      <g>
       <use style="stroke:#000000;stroke-width:0.8;" x="508.7295" xlink:href="#m71e577298b" y="242.990905"/>
      </g>
     </g>
     <g id="text_16">
      <!-- 5 -->
      <g style="fill:#dc143c;" transform="translate(515.7295 249.069655)scale(0.16 -0.16)">
       <use xlink:href="#DejaVuSans-53"/>
      </g>
     </g>
    </g>
    <g id="ytick_9">
     <g id="line2d_148">
      <g>
       <use style="stroke:#000000;stroke-width:0.8;" x="508.7295" xlink:href="#m71e577298b" y="201.28056"/>
      </g>
     </g>
     <g id="text_17">
      <!-- 10 -->
      <g style="fill:#dc143c;" transform="translate(515.7295 207.35931)scale(0.16 -0.16)">
       <use xlink:href="#DejaVuSans-49"/>
       <use x="63.623047" xlink:href="#DejaVuSans-48"/>
      </g>
     </g>
    </g>
    <g id="ytick_10">
     <g id="line2d_149">
      <g>
       <use style="stroke:#000000;stroke-width:0.8;" x="508.7295" xlink:href="#m71e577298b" y="159.570216"/>
      </g>
     </g>
     <g id="text_18">
      <!-- 15 -->
      <g style="fill:#dc143c;" transform="translate(515.7295 165.648966)scale(0.16 -0.16)">
       <use xlink:href="#DejaVuSans-49"/>
       <use x="63.623047" xlink:href="#DejaVuSans-53"/>
      </g>
     </g>
    </g>
    <g id="ytick_11">
     <g id="line2d_150">
      <g>
       <use style="stroke:#000000;stroke-width:0.8;" x="508.7295" xlink:href="#m71e577298b" y="117.859871"/>
      </g>
     </g>
     <g id="text_19">
      <!-- 20 -->
      <g style="fill:#dc143c;" transform="translate(515.7295 123.938621)scale(0.16 -0.16)">
       <use xlink:href="#DejaVuSans-50"/>
       <use x="63.623047" xlink:href="#DejaVuSans-48"/>
      </g>
     </g>
    </g>
    <g id="ytick_12">
     <g id="line2d_151">
      <g>
       <use style="stroke:#000000;stroke-width:0.8;" x="508.7295" xlink:href="#m71e577298b" y="76.149526"/>
      </g>
     </g>
     <g id="text_20">
      <!-- 25 -->
      <g style="fill:#dc143c;" transform="translate(515.7295 82.228276)scale(0.16 -0.16)">
       <use xlink:href="#DejaVuSans-50"/>
       <use x="63.623047" xlink:href="#DejaVuSans-53"/>
      </g>
     </g>
    </g>
    <g id="ytick_13">
     <g id="line2d_152">
      <g>
       <use style="stroke:#000000;stroke-width:0.8;" x="508.7295" xlink:href="#m71e577298b" y="34.439181"/>
      </g>
     </g>
     <g id="text_21">
      <!-- 30 -->
      <g style="fill:#dc143c;" transform="translate(515.7295 40.517931)scale(0.16 -0.16)">
       <use xlink:href="#DejaVuSans-51"/>
       <use x="63.623047" xlink:href="#DejaVuSans-48"/>
      </g>
     </g>
    </g>
    <g id="text_22">
     <!-- number of reported change-points -->
     <g style="fill:#dc143c;" transform="translate(552.247 301.81)rotate(-90)scale(0.16 -0.16)">
      <use xlink:href="#DejaVuSans-110"/>
      <use x="63.378906" xlink:href="#DejaVuSans-117"/>
      <use x="126.757812" xlink:href="#DejaVuSans-109"/>
      <use x="224.169922" xlink:href="#DejaVuSans-98"/>
      <use x="287.646484" xlink:href="#DejaVuSans-101"/>
      <use x="349.169922" xlink:href="#DejaVuSans-114"/>
      <use x="390.283203" xlink:href="#DejaVuSans-32"/>
      <use x="422.070312" xlink:href="#DejaVuSans-111"/>
      <use x="483.251953" xlink:href="#DejaVuSans-102"/>
      <use x="518.457031" xlink:href="#DejaVuSans-32"/>
      <use x="550.244141" xlink:href="#DejaVuSans-114"/>
      <use x="591.326172" xlink:href="#DejaVuSans-101"/>
      <use x="652.849609" xlink:href="#DejaVuSans-112"/>
      <use x="716.326172" xlink:href="#DejaVuSans-111"/>
      <use x="777.507812" xlink:href="#DejaVuSans-114"/>
      <use x="818.621094" xlink:href="#DejaVuSans-116"/>
      <use x="857.830078" xlink:href="#DejaVuSans-101"/>
      <use x="919.353516" xlink:href="#DejaVuSans-100"/>
      <use x="982.830078" xlink:href="#DejaVuSans-32"/>
      <use x="1014.617188" xlink:href="#DejaVuSans-99"/>
      <use x="1069.597656" xlink:href="#DejaVuSans-104"/>
      <use x="1132.976562" xlink:href="#DejaVuSans-97"/>
      <use x="1194.255859" xlink:href="#DejaVuSans-110"/>
      <use x="1257.634766" xlink:href="#DejaVuSans-103"/>
      <use x="1321.111328" xlink:href="#DejaVuSans-101"/>
      <use x="1382.634766" xlink:href="#DejaVuSans-45"/>
      <use x="1418.71875" xlink:href="#DejaVuSans-112"/>
      <use x="1482.195312" xlink:href="#DejaVuSans-111"/>
      <use x="1543.376953" xlink:href="#DejaVuSans-105"/>
      <use x="1571.160156" xlink:href="#DejaVuSans-110"/>
      <use x="1634.539062" xlink:href="#DejaVuSans-116"/>
      <use x="1673.748047" xlink:href="#DejaVuSans-115"/>
     </g>
    </g>
   </g>
   <g id="line2d_153">
    <path clip-path="url(#p5a707efe25)" d="M 151.6095 284.70125 
L 169.029988 42.78125 
L 186.450476 92.833664 
L 203.870963 134.544009 
L 221.291451 151.228147 
L 238.711939 167.912284 
L 256.132427 184.596422 
L 273.552915 192.938491 
L 290.973402 217.964698 
L 308.39389 226.306767 
L 325.814378 234.648836 
L 343.234866 242.990905 
L 360.655354 242.990905 
L 378.075841 251.332974 
L 395.496329 259.675043 
L 412.916817 259.675043 
L 430.337305 259.675043 
L 447.757793 259.675043 
L 465.17828 259.675043 
L 482.598768 259.675043 
" style="fill:none;stroke:#dc143c;stroke-linecap:square;stroke-width:1.5;"/>
   </g>
   <g id="patch_27">
    <path d="M 151.6095 296.79725 
L 151.6095 30.68525 
" style="fill:none;stroke:#000000;stroke-linecap:square;stroke-linejoin:miter;stroke-width:0.8;"/>
   </g>
   <g id="patch_28">
    <path d="M 508.7295 296.79725 
L 508.7295 30.68525 
" style="fill:none;stroke:#000000;stroke-linecap:square;stroke-linejoin:miter;stroke-width:0.8;"/>
   </g>
   <g id="patch_29">
    <path d="M 151.6095 296.79725 
L 508.7295 296.79725 
" style="fill:none;stroke:#000000;stroke-linecap:square;stroke-linejoin:miter;stroke-width:0.8;"/>
   </g>
   <g id="patch_30">
    <path d="M 151.6095 30.68525 
L 508.7295 30.68525 
" style="fill:none;stroke:#000000;stroke-linecap:square;stroke-linejoin:miter;stroke-width:0.8;"/>
   </g>
   <g id="text_23">
    <!-- change-points for scipy_spatial.ConvexHullBench.time_convex_hull -->
    <defs>
     <path d="M 32.171875 -5.078125 
Q 28.375 -14.84375 24.75 -17.8125 
Q 21.140625 -20.796875 15.09375 -20.796875 
L 7.90625 -20.796875 
L 7.90625 -13.28125 
L 13.1875 -13.28125 
Q 16.890625 -13.28125 18.9375 -11.515625 
Q 21 -9.765625 23.484375 -3.21875 
L 25.09375 0.875 
L 2.984375 54.6875 
L 12.5 54.6875 
L 29.59375 11.921875 
L 46.6875 54.6875 
L 56.203125 54.6875 
z
" id="DejaVuSans-121"/>
     <path d="M 50.984375 -16.609375 
L 50.984375 -23.578125 
L -0.984375 -23.578125 
L -0.984375 -16.609375 
z
" id="DejaVuSans-95"/>
     <path d="M 64.40625 67.28125 
L 64.40625 56.890625 
Q 59.421875 61.53125 53.78125 63.8125 
Q 48.140625 66.109375 41.796875 66.109375 
Q 29.296875 66.109375 22.65625 58.46875 
Q 16.015625 50.828125 16.015625 36.375 
Q 16.015625 21.96875 22.65625 14.328125 
Q 29.296875 6.6875 41.796875 6.6875 
Q 48.140625 6.6875 53.78125 8.984375 
Q 59.421875 11.28125 64.40625 15.921875 
L 64.40625 5.609375 
Q 59.234375 2.09375 53.4375 0.328125 
Q 47.65625 -1.421875 41.21875 -1.421875 
Q 24.65625 -1.421875 15.125 8.703125 
Q 5.609375 18.84375 5.609375 36.375 
Q 5.609375 53.953125 15.125 64.078125 
Q 24.65625 74.21875 41.21875 74.21875 
Q 47.75 74.21875 53.53125 72.484375 
Q 59.328125 70.75 64.40625 67.28125 
z
" id="DejaVuSans-67"/>
     <path d="M 2.984375 54.6875 
L 12.5 54.6875 
L 29.59375 8.796875 
L 46.6875 54.6875 
L 56.203125 54.6875 
L 35.6875 0 
L 23.484375 0 
z
" id="DejaVuSans-118"/>
     <path d="M 54.890625 54.6875 
L 35.109375 28.078125 
L 55.90625 0 
L 45.3125 0 
L 29.390625 21.484375 
L 13.484375 0 
L 2.875 0 
L 24.125 28.609375 
L 4.6875 54.6875 
L 15.28125 54.6875 
L 29.78125 35.203125 
L 44.28125 54.6875 
z
" id="DejaVuSans-120"/>
     <path d="M 9.8125 72.90625 
L 19.671875 72.90625 
L 19.671875 43.015625 
L 55.515625 43.015625 
L 55.515625 72.90625 
L 65.375 72.90625 
L 65.375 0 
L 55.515625 0 
L 55.515625 34.71875 
L 19.671875 34.71875 
L 19.671875 0 
L 9.8125 0 
z
" id="DejaVuSans-72"/>
     <path d="M 19.671875 34.8125 
L 19.671875 8.109375 
L 35.5 8.109375 
Q 43.453125 8.109375 47.28125 11.40625 
Q 51.125 14.703125 51.125 21.484375 
Q 51.125 28.328125 47.28125 31.5625 
Q 43.453125 34.8125 35.5 34.8125 
z
M 19.671875 64.796875 
L 19.671875 42.828125 
L 34.28125 42.828125 
Q 41.5 42.828125 45.03125 45.53125 
Q 48.578125 48.25 48.578125 53.8125 
Q 48.578125 59.328125 45.03125 62.0625 
Q 41.5 64.796875 34.28125 64.796875 
z
M 9.8125 72.90625 
L 35.015625 72.90625 
Q 46.296875 72.90625 52.390625 68.21875 
Q 58.5 63.53125 58.5 54.890625 
Q 58.5 48.1875 55.375 44.234375 
Q 52.25 40.28125 46.1875 39.3125 
Q 53.46875 37.75 57.5 32.78125 
Q 61.53125 27.828125 61.53125 20.40625 
Q 61.53125 10.640625 54.890625 5.3125 
Q 48.25 0 35.984375 0 
L 9.8125 0 
z
" id="DejaVuSans-66"/>
    </defs>
    <g transform="translate(7.2 24.68525)scale(0.192 -0.192)">
     <use xlink:href="#DejaVuSans-99"/>
     <use x="54.980469" xlink:href="#DejaVuSans-104"/>
     <use x="118.359375" xlink:href="#DejaVuSans-97"/>
     <use x="179.638672" xlink:href="#DejaVuSans-110"/>
     <use x="243.017578" xlink:href="#DejaVuSans-103"/>
     <use x="306.494141" xlink:href="#DejaVuSans-101"/>
     <use x="368.017578" xlink:href="#DejaVuSans-45"/>
     <use x="404.101562" xlink:href="#DejaVuSans-112"/>
     <use x="467.578125" xlink:href="#DejaVuSans-111"/>
     <use x="528.759766" xlink:href="#DejaVuSans-105"/>
     <use x="556.542969" xlink:href="#DejaVuSans-110"/>
     <use x="619.921875" xlink:href="#DejaVuSans-116"/>
     <use x="659.130859" xlink:href="#DejaVuSans-115"/>
     <use x="711.230469" xlink:href="#DejaVuSans-32"/>
     <use x="743.017578" xlink:href="#DejaVuSans-102"/>
     <use x="778.222656" xlink:href="#DejaVuSans-111"/>
     <use x="839.404297" xlink:href="#DejaVuSans-114"/>
     <use x="880.517578" xlink:href="#DejaVuSans-32"/>
     <use x="912.304688" xlink:href="#DejaVuSans-115"/>
     <use x="964.404297" xlink:href="#DejaVuSans-99"/>
     <use x="1019.384766" xlink:href="#DejaVuSans-105"/>
     <use x="1047.167969" xlink:href="#DejaVuSans-112"/>
     <use x="1110.644531" xlink:href="#DejaVuSans-121"/>
     <use x="1169.824219" xlink:href="#DejaVuSans-95"/>
     <use x="1219.824219" xlink:href="#DejaVuSans-115"/>
     <use x="1271.923828" xlink:href="#DejaVuSans-112"/>
     <use x="1335.400391" xlink:href="#DejaVuSans-97"/>
     <use x="1396.679688" xlink:href="#DejaVuSans-116"/>
     <use x="1435.888672" xlink:href="#DejaVuSans-105"/>
     <use x="1463.671875" xlink:href="#DejaVuSans-97"/>
     <use x="1524.951172" xlink:href="#DejaVuSans-108"/>
     <use x="1552.734375" xlink:href="#DejaVuSans-46"/>
     <use x="1584.521484" xlink:href="#DejaVuSans-67"/>
     <use x="1654.345703" xlink:href="#DejaVuSans-111"/>
     <use x="1715.527344" xlink:href="#DejaVuSans-110"/>
     <use x="1778.90625" xlink:href="#DejaVuSans-118"/>
     <use x="1838.085938" xlink:href="#DejaVuSans-101"/>
     <use x="1899.59375" xlink:href="#DejaVuSans-120"/>
     <use x="1958.773438" xlink:href="#DejaVuSans-72"/>
     <use x="2033.96875" xlink:href="#DejaVuSans-117"/>
     <use x="2097.347656" xlink:href="#DejaVuSans-108"/>
     <use x="2125.130859" xlink:href="#DejaVuSans-108"/>
     <use x="2152.914062" xlink:href="#DejaVuSans-66"/>
     <use x="2221.517578" xlink:href="#DejaVuSans-101"/>
     <use x="2283.041016" xlink:href="#DejaVuSans-110"/>
     <use x="2346.419922" xlink:href="#DejaVuSans-99"/>
     <use x="2401.400391" xlink:href="#DejaVuSans-104"/>
     <use x="2464.779297" xlink:href="#DejaVuSans-46"/>
     <use x="2496.566406" xlink:href="#DejaVuSans-116"/>
     <use x="2535.775391" xlink:href="#DejaVuSans-105"/>
     <use x="2563.558594" xlink:href="#DejaVuSans-109"/>
     <use x="2660.970703" xlink:href="#DejaVuSans-101"/>
     <use x="2722.494141" xlink:href="#DejaVuSans-95"/>
     <use x="2772.494141" xlink:href="#DejaVuSans-99"/>
     <use x="2827.474609" xlink:href="#DejaVuSans-111"/>
     <use x="2888.65625" xlink:href="#DejaVuSans-110"/>
     <use x="2952.035156" xlink:href="#DejaVuSans-118"/>
     <use x="3011.214844" xlink:href="#DejaVuSans-101"/>
     <use x="3072.722656" xlink:href="#DejaVuSans-120"/>
     <use x="3131.902344" xlink:href="#DejaVuSans-95"/>
     <use x="3181.902344" xlink:href="#DejaVuSans-104"/>
     <use x="3245.28125" xlink:href="#DejaVuSans-117"/>
     <use x="3308.660156" xlink:href="#DejaVuSans-108"/>
     <use x="3336.443359" xlink:href="#DejaVuSans-108"/>
    </g>
   </g>
  </g>
 </g>
 <defs>
  <clipPath id="p5a707efe25">
   <rect height="266.112" width="357.12" x="151.6095" y="30.68525"/>
  </clipPath>
 </defs>
</svg>
